<svg xmlns="http://www.w3.org/2000/svg" xmlns:xlink="http://www.w3.org/1999/xlink" width="500" zoomAndPan="magnify" viewBox="0 0 375 374.999991" height="500" preserveAspectRatio="xMidYMid meet" version="1.0"><defs><g/><clipPath id="f4867d6dcc"><path d="M 112.5 122.730469 L 262.5 122.730469 L 262.5 200.730469 L 112.5 200.730469 Z M 112.5 122.730469 " clip-rule="nonzero"/></clipPath></defs><path fill="#000000" d="M 217.871094 153.492188 C 215.832031 152.285156 213.765625 151.140625 211.695312 150.027344 C 210.496094 152.105469 209.328125 154.152344 208.128906 156.230469 C 210.195312 157.347656 212.265625 158.492188 214.304688 159.726562 C 215.472656 157.648438 216.671875 155.570312 217.871094 153.492188 Z M 217.871094 153.492188 " fill-opacity="1" fill-rule="nonzero"/><path fill="#000000" d="M 223.6875 157.589844 C 222.488281 159.667969 221.289062 161.777344 220.089844 163.855469 C 221.890625 165.453125 223.628906 167.167969 225.277344 169.035156 C 226.476562 166.957031 227.675781 164.847656 228.875 162.769531 C 227.226562 160.871094 225.488281 159.183594 223.6875 157.589844 Z M 223.6875 157.589844 " fill-opacity="1" fill-rule="nonzero"/><path fill="#000000" d="M 214.273438 159.726562 C 213.074219 161.804688 211.875 163.882812 210.707031 165.964844 C 212.683594 167.257812 214.605469 168.644531 216.492188 170.121094 C 217.691406 168.042969 218.890625 165.964844 220.089844 163.855469 C 218.203125 162.378906 216.253906 160.992188 214.273438 159.726562 Z M 214.273438 159.726562 " fill-opacity="1" fill-rule="nonzero"/><path fill="#000000" d="M 227.257812 151.351562 C 225.367188 149.90625 223.417969 148.550781 221.441406 147.285156 C 220.242188 149.363281 219.042969 151.441406 217.871094 153.519531 C 219.851562 154.816406 221.800781 156.171875 223.6875 157.617188 C 224.886719 155.507812 226.085938 153.429688 227.257812 151.351562 Z M 227.257812 151.351562 " fill-opacity="1" fill-rule="nonzero"/><path fill="#000000" d="M 225.007812 141.019531 C 222.96875 139.84375 220.871094 138.726562 218.773438 137.613281 C 217.574219 139.691406 216.402344 141.742188 215.203125 143.820312 C 217.273438 144.933594 219.371094 146.050781 221.410156 147.253906 C 222.640625 145.207031 223.839844 143.125 225.007812 141.019531 Z M 225.007812 141.019531 " fill-opacity="1" fill-rule="nonzero"/><path fill="#000000" d="M 241.4375 169.367188 C 242.578125 167.378906 243.746094 165.359375 244.886719 163.371094 C 243.296875 161.414062 241.859375 159.183594 240.480469 156.835938 C 239.28125 158.914062 238.082031 160.992188 236.910156 163.070312 C 238.289062 165.332031 239.789062 167.5 241.4375 169.367188 Z M 241.4375 169.367188 " fill-opacity="1" fill-rule="nonzero"/><path fill="#000000" d="M 229.746094 175.484375 C 231.214844 177.652344 232.804688 179.640625 234.542969 181.359375 C 235.683594 179.371094 236.851562 177.351562 237.992188 175.363281 C 236.3125 173.554688 234.753906 171.476562 233.3125 169.246094 C 232.113281 171.355469 230.914062 173.433594 229.746094 175.484375 Z M 229.746094 175.484375 " fill-opacity="1" fill-rule="nonzero"/><path fill="#000000" d="M 232.472656 156.472656 C 233.671875 154.394531 234.871094 152.285156 236.070312 150.207031 C 234.421875 148.339844 232.683594 146.652344 230.855469 145.085938 C 229.65625 147.164062 228.457031 149.242188 227.257812 151.351562 C 229.085938 152.917969 230.855469 154.605469 232.472656 156.472656 Z M 232.472656 156.472656 " fill-opacity="1" fill-rule="nonzero"/><path fill="#000000" d="M 225.277344 169.035156 C 224.078125 171.144531 222.878906 173.222656 221.679688 175.304688 C 223.238281 177.320312 224.707031 179.492188 226.175781 181.691406 C 227.375 179.609375 228.578125 177.53125 229.746094 175.453125 C 228.304688 173.253906 226.835938 171.085938 225.277344 169.035156 Z M 225.277344 169.035156 " fill-opacity="1" fill-rule="nonzero"/><path fill="#000000" d="M 233.3125 169.277344 C 234.511719 167.199219 235.683594 165.121094 236.882812 163.042969 C 235.503906 160.722656 234.03125 158.523438 232.472656 156.472656 C 231.273438 158.582031 230.074219 160.660156 228.875 162.738281 C 230.433594 164.789062 231.902344 166.988281 233.3125 169.277344 Z M 233.3125 169.277344 " fill-opacity="1" fill-rule="nonzero"/><path fill="#000000" d="M 237.992188 175.363281 C 239.820312 176.898438 241.828125 178.195312 243.898438 179.308594 C 245.007812 177.351562 246.144531 175.421875 247.253906 173.464844 C 245.1875 172.320312 243.238281 170.964844 241.4375 169.367188 C 240.269531 171.386719 239.128906 173.375 237.992188 175.363281 Z M 237.992188 175.363281 " fill-opacity="1" fill-rule="nonzero"/><path fill="#000000" d="M 231.066406 187.382812 C 232.953125 188.800781 235.023438 189.976562 237.152344 191 C 238.261719 189.042969 239.398438 187.113281 240.507812 185.15625 C 238.410156 184.101562 236.371094 182.863281 234.511719 181.390625 C 233.375 183.378906 232.234375 185.394531 231.066406 187.382812 Z M 231.066406 187.382812 " fill-opacity="1" fill-rule="nonzero"/><g clip-path="url(#f4867d6dcc)"><path fill="#000000" d="M 260.988281 163.3125 C 258.886719 162.527344 256.667969 161.65625 254.632812 160.660156 C 252.652344 159.457031 250.851562 158.039062 249.292969 156.503906 C 247.976562 154.757812 246.65625 152.675781 245.15625 149.9375 C 243.71875 147.40625 242.21875 145.085938 240.660156 143.035156 C 239.070312 141.230469 237.300781 139.511719 235.230469 137.765625 C 233.554688 136.46875 231.695312 135.203125 229.234375 133.636719 C 227.195312 132.460938 225.15625 131.40625 222.878906 130.203125 C 220.75 129.269531 218.621094 128.335938 216.492188 127.402344 L 217.511719 125.621094 C 217.992188 124.78125 217.722656 123.695312 216.882812 123.210938 C 216.042969 122.730469 214.964844 123 214.484375 123.84375 L 187.5 170.8125 L 160.515625 123.875 C 160.035156 123.03125 158.957031 122.730469 158.117188 123.242188 C 157.277344 123.726562 156.976562 124.808594 157.488281 125.652344 L 158.507812 127.429688 C 156.378906 128.363281 154.25 129.296875 152.121094 130.230469 C 149.84375 131.40625 147.804688 132.492188 145.765625 133.667969 C 143.277344 135.234375 141.445312 136.5 139.769531 137.792969 C 137.699219 139.542969 135.929688 141.257812 134.339844 143.066406 C 132.78125 145.117188 131.28125 147.40625 129.84375 149.964844 C 128.34375 152.675781 127.054688 154.757812 125.707031 156.535156 C 124.148438 158.070312 122.347656 159.484375 120.367188 160.691406 C 118.332031 161.714844 116.113281 162.558594 114.011719 163.34375 L 112.542969 163.855469 L 133.710938 200.730469 L 134.699219 200.429688 C 137.1875 199.644531 139.4375 198.953125 141.625 198.078125 C 143.15625 197.386719 144.476562 196.722656 145.703125 196 C 146.542969 195.519531 147.351562 195.007812 148.074219 194.496094 L 148.132812 194.433594 C 150.023438 192.808594 151.789062 190.910156 153.410156 188.769531 C 154.847656 186.660156 156.378906 184.433594 157.9375 182.441406 C 159.4375 180.757812 161.054688 179.097656 162.945312 177.382812 C 164.953125 175.816406 166.78125 174.488281 168.550781 173.34375 C 169.300781 172.863281 170.140625 172.378906 171.070312 171.839844 C 172.296875 171.144531 173.589844 170.421875 174.609375 169.820312 C 176.257812 169.007812 177.996094 168.164062 179.734375 167.347656 L 181.023438 166.714844 L 185.460938 174.398438 L 175.058594 192.503906 C 174.578125 193.347656 174.847656 194.433594 175.6875 194.917969 C 176.527344 195.398438 177.605469 195.125 178.085938 194.285156 L 187.46875 177.925781 L 196.855469 194.285156 C 197.335938 195.125 198.414062 195.429688 199.253906 194.917969 C 200.09375 194.433594 200.390625 193.347656 199.882812 192.503906 L 189.480469 174.398438 L 193.917969 166.714844 L 195.207031 167.347656 C 196.945312 168.191406 198.652344 169.007812 200.332031 169.820312 C 201.382812 170.390625 202.671875 171.117188 203.871094 171.839844 C 204.800781 172.378906 205.609375 172.863281 206.390625 173.34375 C 208.15625 174.488281 209.988281 175.84375 211.996094 177.382812 C 213.882812 179.097656 215.503906 180.757812 217.003906 182.441406 C 218.53125 184.460938 220.0625 186.660156 221.53125 188.769531 C 223.148438 190.910156 224.917969 192.808594 226.808594 194.433594 L 226.867188 194.496094 C 227.617188 195.007812 228.394531 195.519531 229.234375 196 C 230.464844 196.722656 231.785156 197.386719 233.3125 198.078125 C 235.503906 198.953125 237.75 199.675781 240.238281 200.429688 L 241.230469 200.730469 L 262.457031 163.855469 Z M 174.007812 168.613281 C 172.839844 166.566406 171.640625 164.488281 170.441406 162.4375 C 168.371094 163.582031 166.300781 164.726562 164.292969 165.964844 C 165.492188 168.042969 166.691406 170.121094 167.863281 172.199219 C 165.882812 173.496094 163.964844 174.910156 162.074219 176.386719 C 160.875 174.308594 159.675781 172.230469 158.476562 170.152344 C 156.679688 171.777344 154.9375 173.496094 153.289062 175.363281 C 154.488281 177.472656 155.6875 179.550781 156.886719 181.628906 C 155.328125 183.648438 153.828125 185.816406 152.359375 187.988281 C 151.160156 185.90625 149.992188 183.828125 148.792969 181.75 C 147.292969 183.859375 145.644531 185.757812 143.875 187.414062 C 145.015625 189.402344 146.183594 191.421875 147.324219 193.410156 C 145.375 194.765625 143.304688 195.878906 141.117188 196.84375 C 140.007812 194.886719 138.898438 192.957031 137.757812 191 C 135.570312 191.902344 133.261719 192.65625 130.953125 193.378906 C 129.84375 191.453125 128.734375 189.523438 127.625 187.625 C 129.902344 186.871094 132.210938 186.089844 134.371094 185.15625 C 133.261719 183.195312 132.121094 181.269531 131.011719 179.308594 C 128.855469 180.273438 126.574219 181.085938 124.296875 181.839844 C 123.1875 179.914062 122.078125 178.015625 121 176.085938 C 123.277344 175.304688 125.527344 174.460938 127.65625 173.464844 C 126.546875 171.539062 125.40625 169.578125 124.296875 167.621094 C 122.167969 168.644531 119.917969 169.519531 117.671875 170.300781 C 116.5625 168.375 115.453125 166.445312 114.34375 164.546875 C 116.589844 163.703125 118.808594 162.832031 120.910156 161.777344 C 122.019531 163.734375 123.15625 165.664062 124.265625 167.621094 C 126.304688 166.414062 128.222656 165.03125 129.992188 163.371094 C 128.855469 161.382812 127.683594 159.367188 126.546875 157.378906 C 128.105469 155.328125 129.484375 153.039062 130.832031 150.597656 C 132.03125 152.675781 133.230469 154.757812 134.402344 156.835938 C 135.78125 154.484375 137.21875 152.253906 138.777344 150.207031 C 137.578125 148.097656 136.378906 146.019531 135.179688 143.910156 C 136.828125 142.042969 138.597656 140.355469 140.425781 138.820312 C 141.625 140.898438 142.824219 143.007812 144.023438 145.085938 C 145.914062 143.640625 147.894531 142.3125 149.871094 141.046875 C 148.671875 138.96875 147.472656 136.890625 146.304688 134.8125 C 148.34375 133.636719 150.441406 132.550781 152.539062 131.4375 C 153.738281 133.515625 154.910156 135.566406 156.109375 137.644531 C 158.265625 136.679688 160.457031 135.683594 162.613281 134.75 C 163.785156 136.800781 164.984375 138.847656 166.152344 140.898438 C 163.992188 141.863281 161.835938 142.855469 159.675781 143.851562 C 160.875 145.929688 162.042969 147.976562 163.242188 150.027344 C 165.402344 149.03125 167.5625 148.039062 169.691406 147.042969 C 170.859375 149.09375 172.058594 151.140625 173.226562 153.191406 C 171.070312 154.183594 168.941406 155.207031 166.78125 156.203125 C 167.980469 158.28125 169.152344 160.328125 170.351562 162.410156 C 172.480469 161.382812 174.636719 160.359375 176.765625 159.335938 C 177.933594 161.382812 179.136719 163.433594 180.304688 165.480469 C 178.265625 166.566406 176.136719 167.589844 174.007812 168.613281 Z M 257.210938 170.332031 C 254.960938 169.519531 252.710938 168.675781 250.582031 167.652344 C 249.472656 169.609375 248.335938 171.539062 247.226562 173.496094 C 249.355469 174.488281 251.632812 175.332031 253.882812 176.117188 C 252.773438 178.042969 251.664062 179.972656 250.582031 181.871094 C 248.304688 181.085938 246.027344 180.304688 243.867188 179.339844 C 242.757812 181.296875 241.617188 183.226562 240.507812 185.183594 C 242.699219 186.117188 244.976562 186.902344 247.253906 187.65625 C 246.144531 189.582031 245.035156 191.511719 243.925781 193.410156 C 241.617188 192.6875 239.339844 191.933594 237.121094 191.03125 C 236.011719 192.988281 234.871094 194.917969 233.761719 196.875 C 231.605469 195.910156 229.503906 194.796875 227.558594 193.441406 C 228.695312 191.453125 229.867188 189.433594 231.003906 187.445312 C 229.234375 185.789062 227.585938 183.890625 226.085938 181.78125 C 224.886719 183.859375 223.6875 185.9375 222.519531 188.015625 C 221.050781 185.847656 219.550781 183.707031 217.992188 181.660156 C 219.191406 179.582031 220.390625 177.472656 221.589844 175.394531 C 219.941406 173.527344 218.203125 171.777344 216.402344 170.179688 C 215.203125 172.261719 214.003906 174.339844 212.804688 176.417969 C 210.917969 174.941406 208.996094 173.554688 207.019531 172.230469 C 208.21875 170.152344 209.386719 168.074219 210.585938 165.992188 C 208.578125 164.757812 206.507812 163.613281 204.441406 162.46875 C 203.242188 164.546875 202.070312 166.597656 200.871094 168.644531 C 198.742188 167.589844 196.613281 166.566406 194.484375 165.542969 C 195.65625 163.492188 196.855469 161.445312 198.023438 159.394531 C 200.152344 160.421875 202.3125 161.414062 204.441406 162.46875 C 205.640625 160.421875 206.808594 158.339844 208.007812 156.261719 C 205.878906 155.238281 203.71875 154.242188 201.5625 153.25 C 202.730469 151.199219 203.929688 149.152344 205.101562 147.105469 C 207.257812 148.097656 209.417969 149.09375 211.546875 150.085938 C 212.714844 148.039062 213.914062 145.957031 215.113281 143.910156 C 212.957031 142.917969 210.796875 141.953125 208.636719 140.957031 C 209.808594 138.910156 211.007812 136.859375 212.175781 134.8125 C 214.335938 135.777344 216.523438 136.738281 218.683594 137.703125 C 219.882812 135.65625 221.050781 133.578125 222.25 131.496094 C 224.347656 132.582031 226.449219 133.695312 228.484375 134.871094 C 227.285156 136.949219 226.085938 139.03125 224.917969 141.109375 C 226.898438 142.375 228.875 143.699219 230.765625 145.144531 C 231.964844 143.066406 233.164062 140.988281 234.363281 138.878906 C 236.191406 140.414062 237.960938 142.101562 239.609375 143.96875 C 238.410156 146.078125 237.210938 148.160156 236.011719 150.265625 C 237.570312 152.316406 239.011719 154.515625 240.390625 156.894531 C 241.589844 154.816406 242.789062 152.738281 243.957031 150.660156 C 245.277344 153.070312 246.6875 155.390625 248.246094 157.4375 C 247.105469 159.457031 245.9375 161.445312 244.796875 163.433594 C 246.566406 165.089844 248.484375 166.503906 250.523438 167.679688 C 251.632812 165.753906 252.773438 163.792969 253.882812 161.835938 C 255.980469 162.890625 258.230469 163.765625 260.449219 164.609375 C 259.429688 166.476562 258.320312 168.402344 257.210938 170.332031 Z M 257.210938 170.332031 " fill-opacity="1" fill-rule="nonzero"/></g><path fill="#000000" d="M 160.726562 159.726562 C 162.765625 158.492188 164.832031 157.378906 166.902344 156.230469 C 165.703125 154.183594 164.535156 152.105469 163.335938 150.027344 C 161.265625 151.140625 159.167969 152.285156 157.15625 153.492188 C 158.328125 155.570312 159.527344 157.648438 160.726562 159.726562 Z M 160.726562 159.726562 " fill-opacity="1" fill-rule="nonzero"/><path fill="#000000" d="M 146.125 162.769531 C 147.324219 164.878906 148.523438 166.957031 149.722656 169.035156 C 151.371094 167.167969 153.109375 165.453125 154.910156 163.855469 C 153.710938 161.777344 152.511719 159.695312 151.3125 157.589844 C 149.511719 159.183594 147.773438 160.871094 146.125 162.769531 Z M 146.125 162.769531 " fill-opacity="1" fill-rule="nonzero"/><path fill="#000000" d="M 154.910156 163.855469 C 156.109375 165.933594 157.308594 168.011719 158.507812 170.121094 C 160.394531 168.644531 162.316406 167.257812 164.292969 165.964844 C 163.09375 163.882812 161.894531 161.804688 160.726562 159.726562 C 158.746094 160.992188 156.796875 162.378906 154.910156 163.855469 Z M 154.910156 163.855469 " fill-opacity="1" fill-rule="nonzero"/><path fill="#000000" d="M 157.128906 153.492188 C 155.929688 151.410156 154.757812 149.332031 153.558594 147.253906 C 151.582031 148.519531 149.632812 149.875 147.742188 151.320312 C 148.941406 153.402344 150.140625 155.480469 151.339844 157.558594 C 153.199219 156.140625 155.148438 154.757812 157.128906 153.492188 Z M 157.128906 153.492188 " fill-opacity="1" fill-rule="nonzero"/><path fill="#000000" d="M 159.765625 143.851562 C 158.566406 141.800781 157.398438 139.722656 156.199219 137.644531 C 154.097656 138.726562 152.03125 139.84375 149.960938 141.046875 C 151.160156 143.125 152.359375 145.207031 153.53125 147.285156 C 155.597656 146.078125 157.667969 144.933594 159.765625 143.851562 Z M 159.765625 143.851562 " fill-opacity="1" fill-rule="nonzero"/><path fill="#000000" d="M 138.117188 163.042969 C 136.917969 160.960938 135.71875 158.882812 134.550781 156.804688 C 133.171875 159.15625 131.730469 161.382812 130.144531 163.34375 C 131.28125 165.332031 132.453125 167.347656 133.589844 169.335938 C 135.210938 167.5 136.710938 165.332031 138.117188 163.042969 Z M 138.117188 163.042969 " fill-opacity="1" fill-rule="nonzero"/><path fill="#000000" d="M 137.007812 175.363281 C 138.148438 177.382812 139.316406 179.371094 140.457031 181.359375 C 142.195312 179.640625 143.785156 177.652344 145.253906 175.484375 C 144.054688 173.40625 142.855469 171.328125 141.6875 169.246094 C 140.246094 171.507812 138.71875 173.554688 137.007812 175.363281 Z M 137.007812 175.363281 " fill-opacity="1" fill-rule="nonzero"/><path fill="#000000" d="M 147.742188 151.351562 C 146.542969 149.273438 145.34375 147.195312 144.144531 145.085938 C 142.316406 146.652344 140.578125 148.339844 138.929688 150.207031 C 140.128906 152.316406 141.328125 154.394531 142.527344 156.472656 C 144.144531 154.605469 145.914062 152.917969 147.742188 151.351562 Z M 147.742188 151.351562 " fill-opacity="1" fill-rule="nonzero"/><path fill="#000000" d="M 145.253906 175.484375 C 146.453125 177.5625 147.652344 179.640625 148.824219 181.71875 C 150.292969 179.519531 151.761719 177.351562 153.320312 175.332031 C 152.121094 173.253906 150.921875 171.144531 149.722656 169.066406 C 148.164062 171.085938 146.695312 173.253906 145.253906 175.484375 Z M 145.253906 175.484375 " fill-opacity="1" fill-rule="nonzero"/><path fill="#000000" d="M 146.125 162.769531 C 144.925781 160.691406 143.726562 158.582031 142.527344 156.503906 C 140.96875 158.550781 139.527344 160.75 138.117188 163.070312 C 139.316406 165.148438 140.515625 167.230469 141.6875 169.308594 C 143.097656 166.988281 144.566406 164.789062 146.125 162.769531 Z M 146.125 162.769531 " fill-opacity="1" fill-rule="nonzero"/><path fill="#000000" d="M 133.5625 169.367188 C 131.761719 170.964844 129.8125 172.320312 127.746094 173.464844 C 128.855469 175.421875 129.992188 177.351562 131.101562 179.308594 C 133.203125 178.195312 135.179688 176.929688 137.007812 175.363281 C 135.871094 173.375 134.730469 171.386719 133.5625 169.367188 Z M 133.5625 169.367188 " fill-opacity="1" fill-rule="nonzero"/><path fill="#000000" d="M 134.460938 185.15625 C 135.570312 187.113281 136.710938 189.042969 137.820312 191 C 139.949219 189.976562 142.015625 188.800781 143.90625 187.382812 C 142.765625 185.394531 141.597656 183.378906 140.457031 181.390625 C 138.597656 182.863281 136.589844 184.070312 134.460938 185.15625 Z M 134.460938 185.15625 " fill-opacity="1" fill-rule="nonzero"/><g fill="#292929" fill-opacity="1"><g transform="translate(62.32782, 234.155596)"><g><path d="M 7.203125 -0.578125 C 7.203125 -0.671875 7.257812 -0.71875 7.375 -0.71875 L 7.875 -0.71875 C 9.050781 -0.71875 10 -0.96875 10.71875 -1.46875 C 11.4375 -1.976562 11.796875 -2.570312 11.796875 -3.25 L 11.796875 -23.25 C 11.796875 -23.5 11.742188 -23.640625 11.640625 -23.671875 C 11.535156 -23.703125 11.414062 -23.726562 11.28125 -23.75 L 4.34375 -23.75 C 3.21875 -23.507812 2.476562 -22.648438 2.125 -21.171875 C 1.9375 -20.378906 1.820312 -19.867188 1.78125 -19.640625 C 1.75 -19.421875 1.6875 -19.3125 1.59375 -19.3125 L 1.265625 -19.3125 C 1.191406 -19.3125 1.15625 -19.335938 1.15625 -19.390625 L 1.15625 -19.984375 L 1.828125 -25.625 C 1.898438 -25.988281 2.019531 -26.171875 2.1875 -26.171875 C 2.351562 -26.171875 2.53125 -26.050781 2.71875 -25.8125 C 2.914062 -25.582031 3.285156 -25.46875 3.828125 -25.46875 L 23.3125 -25.46875 C 23.820312 -25.46875 24.128906 -25.523438 24.234375 -25.640625 C 24.347656 -25.765625 24.453125 -25.882812 24.546875 -26 C 24.648438 -26.113281 24.773438 -26.171875 24.921875 -26.171875 C 25.078125 -26.171875 25.175781 -26.109375 25.21875 -25.984375 C 25.257812 -25.867188 25.289062 -25.75 25.3125 -25.625 L 25.984375 -19.984375 L 25.984375 -19.390625 C 25.984375 -19.335938 25.945312 -19.3125 25.875 -19.3125 L 25.546875 -19.3125 C 25.453125 -19.3125 25.382812 -19.398438 25.34375 -19.578125 C 25.15625 -20.785156 24.878906 -21.738281 24.515625 -22.4375 C 24.148438 -23.144531 23.578125 -23.582031 22.796875 -23.75 L 15.84375 -23.75 C 15.695312 -23.726562 15.570312 -23.703125 15.46875 -23.671875 C 15.375 -23.640625 15.328125 -23.5 15.328125 -23.25 L 15.328125 -3.25 C 15.328125 -2.570312 15.679688 -1.976562 16.390625 -1.46875 C 17.109375 -0.96875 18.054688 -0.71875 19.234375 -0.71875 L 19.765625 -0.71875 C 19.859375 -0.71875 19.90625 -0.671875 19.90625 -0.578125 L 19.90625 -0.140625 C 19.90625 -0.046875 19.859375 0 19.765625 0 L 7.359375 0 C 7.253906 0 7.203125 -0.046875 7.203125 -0.140625 Z M 7.203125 -0.578125 "/></g></g></g><g fill="#292929" fill-opacity="1"><g transform="translate(88.831688, 234.155596)"><g><path d="M 26.328125 -3.265625 C 26.328125 -1.640625 27.453125 -0.789062 29.703125 -0.71875 C 29.796875 -0.71875 29.84375 -0.671875 29.84375 -0.578125 L 29.84375 -0.140625 C 29.84375 -0.046875 29.796875 0 29.703125 0 L 18.21875 0 C 18.113281 0 18.0625 -0.046875 18.0625 -0.140625 L 18.0625 -0.578125 C 18.0625 -0.671875 18.363281 -0.71875 18.96875 -0.71875 C 19.570312 -0.71875 20.257812 -0.851562 21.03125 -1.125 C 22.207031 -1.507812 22.796875 -2.160156 22.796875 -3.078125 L 22.796875 -11.6875 C 22.796875 -11.8125 22.773438 -11.890625 22.734375 -11.921875 C 22.703125 -11.960938 22.628906 -11.984375 22.515625 -11.984375 L 8.28125 -11.984375 C 8.15625 -11.984375 8.070312 -11.960938 8.03125 -11.921875 C 8 -11.890625 7.984375 -11.8125 7.984375 -11.6875 L 7.984375 -2.890625 C 7.984375 -1.441406 9.050781 -0.71875 11.1875 -0.71875 C 11.28125 -0.71875 11.328125 -0.671875 11.328125 -0.578125 L 11.328125 -0.140625 C 11.328125 -0.046875 11.285156 0 11.203125 0 L 1.234375 0 C 1.128906 0 1.078125 -0.046875 1.078125 -0.140625 L 1.078125 -0.578125 C 1.078125 -0.671875 1.203125 -0.71875 1.453125 -0.71875 C 3.460938 -0.71875 4.46875 -1.582031 4.46875 -3.3125 L 4.46875 -22.578125 C 4.46875 -23.992188 3.628906 -24.742188 1.953125 -24.828125 C 1.703125 -24.835938 1.578125 -24.890625 1.578125 -24.984375 L 1.578125 -25.328125 C 1.578125 -25.421875 1.617188 -25.46875 1.703125 -25.46875 L 10.765625 -25.46875 C 10.859375 -25.46875 10.90625 -25.421875 10.90625 -25.328125 L 10.90625 -24.984375 C 10.90625 -24.910156 10.789062 -24.875 10.5625 -24.875 C 8.84375 -24.875 7.984375 -24.023438 7.984375 -22.328125 L 7.984375 -13.984375 C 7.984375 -13.859375 8 -13.773438 8.03125 -13.734375 C 8.070312 -13.703125 8.15625 -13.6875 8.28125 -13.6875 L 22.515625 -13.6875 C 22.628906 -13.6875 22.703125 -13.703125 22.734375 -13.734375 C 22.773438 -13.773438 22.796875 -13.859375 22.796875 -13.984375 L 22.796875 -22.625 C 22.773438 -22.726562 22.757812 -22.820312 22.75 -22.90625 C 22.75 -23 22.726562 -23.144531 22.6875 -23.34375 C 22.601562 -23.75 22.175781 -24.082031 21.40625 -24.34375 C 20.632812 -24.601562 19.765625 -24.769531 18.796875 -24.84375 C 18.691406 -24.84375 18.640625 -24.890625 18.640625 -24.984375 L 18.640625 -25.328125 C 18.640625 -25.421875 18.679688 -25.46875 18.765625 -25.46875 L 29.203125 -25.46875 C 29.296875 -25.46875 29.34375 -25.421875 29.34375 -25.328125 L 29.34375 -24.984375 C 29.34375 -24.910156 29.226562 -24.875 29 -24.875 C 27.21875 -24.875 26.328125 -24.023438 26.328125 -22.328125 Z M 26.328125 -3.265625 "/></g></g></g><g fill="#292929" fill-opacity="1"><g transform="translate(119.129101, 234.155596)"><g><path d="M 0.125 -0.140625 L 0.125 -0.65625 C 0.125 -0.75 0.171875 -0.796875 0.265625 -0.796875 L 0.671875 -0.796875 C 1.171875 -0.828125 1.6875 -0.847656 2.21875 -0.859375 C 2.75 -0.867188 3.234375 -0.929688 3.671875 -1.046875 C 4.660156 -1.335938 5.15625 -2.0625 5.15625 -3.21875 L 5.15625 -22.265625 C 5.15625 -23.453125 4.445312 -24.207031 3.03125 -24.53125 C 2.632812 -24.613281 2.234375 -24.6875 1.828125 -24.75 L 1.453125 -24.75 C 1.347656 -24.75 1.296875 -24.796875 1.296875 -24.890625 L 1.296875 -25.328125 C 1.296875 -25.421875 1.347656 -25.46875 1.453125 -25.46875 L 18.625 -25.46875 C 18.84375 -25.46875 19 -25.425781 19.09375 -25.34375 C 19.1875 -25.269531 19.25 -25.101562 19.28125 -24.84375 L 19.609375 -19.609375 C 19.609375 -19.484375 19.515625 -19.421875 19.328125 -19.421875 C 19.148438 -19.421875 19.019531 -19.472656 18.9375 -19.578125 C 18.863281 -19.703125 18.769531 -20.144531 18.65625 -20.90625 C 18.539062 -21.664062 18.332031 -22.296875 18.03125 -22.796875 C 17.726562 -23.304688 17.195312 -23.625 16.4375 -23.75 L 8.90625 -23.75 C 8.75 -23.75 8.671875 -23.671875 8.671875 -23.515625 L 8.671875 -14.1875 C 8.671875 -14.0625 8.734375 -14 8.859375 -14 L 15.109375 -14 C 16.722656 -14 17.53125 -14.9375 17.53125 -16.8125 C 17.53125 -16.914062 17.578125 -16.96875 17.671875 -16.96875 L 18.109375 -16.96875 C 18.203125 -16.96875 18.25 -16.914062 18.25 -16.8125 L 18.25 -9.09375 C 18.25 -8.988281 18.203125 -8.9375 18.109375 -8.9375 L 17.671875 -8.9375 C 17.578125 -8.9375 17.53125 -8.988281 17.53125 -9.09375 C 17.53125 -10.875 17.007812 -11.898438 15.96875 -12.171875 C 15.675781 -12.242188 15.367188 -12.28125 15.046875 -12.28125 L 8.859375 -12.28125 C 8.734375 -12.28125 8.671875 -12.222656 8.671875 -12.109375 L 8.671875 -3.3125 C 8.671875 -2.40625 9.085938 -1.890625 9.921875 -1.765625 C 10.160156 -1.734375 10.410156 -1.71875 10.671875 -1.71875 L 16.6875 -1.71875 C 17.925781 -1.71875 18.890625 -2.265625 19.578125 -3.359375 C 20.078125 -4.140625 20.378906 -5.035156 20.484375 -6.046875 C 20.523438 -6.390625 20.707031 -6.5625 21.03125 -6.5625 C 21.175781 -6.5625 21.25 -6.484375 21.25 -6.328125 L 20.65625 -0.25 C 20.582031 -0.0820312 20.492188 0 20.390625 0 L 0.265625 0 C 0.171875 0 0.125 -0.046875 0.125 -0.140625 Z M 0.125 -0.140625 "/></g></g></g><g fill="#292929" fill-opacity="1"><g transform="translate(141.333619, 234.155596)"><g/></g></g><g fill="#292929" fill-opacity="1"><g transform="translate(150.640085, 234.155596)"><g><path d="M 1.8125 0 C 1.707031 0 1.65625 -0.117188 1.65625 -0.359375 L 1.65625 -0.578125 C 1.65625 -0.671875 1.71875 -0.71875 1.84375 -0.71875 C 1.96875 -0.71875 2.144531 -0.753906 2.375 -0.828125 C 2.613281 -0.898438 2.789062 -0.945312 2.90625 -0.96875 C 4.132812 -1.25 4.75 -1.953125 4.75 -3.078125 L 4.75 -22.15625 C 4.75 -23.257812 4.539062 -23.960938 4.125 -24.265625 C 3.71875 -24.578125 2.984375 -24.734375 1.921875 -24.734375 L 1.109375 -24.734375 C 0.847656 -24.734375 0.71875 -24.878906 0.71875 -25.171875 C 0.71875 -25.335938 0.796875 -25.4375 0.953125 -25.46875 L 1.078125 -25.46875 L 11.21875 -25.75 L 13.046875 -25.75 C 15.203125 -25.601562 16.992188 -24.820312 18.421875 -23.40625 C 19.859375 -22 20.578125 -20.3125 20.578125 -18.34375 C 20.578125 -16.375 19.875 -14.585938 18.46875 -12.984375 C 17.851562 -12.273438 17.160156 -11.703125 16.390625 -11.265625 C 15.617188 -10.828125 14.859375 -10.601562 14.109375 -10.59375 L 8.6875 -10.796875 L 8.546875 -10.796875 C 8.367188 -10.796875 8.28125 -10.710938 8.28125 -10.546875 L 8.28125 -3.125 C 8.28125 -2.457031 8.457031 -1.96875 8.8125 -1.65625 C 9.175781 -1.34375 9.941406 -1.097656 11.109375 -0.921875 C 11.265625 -0.898438 11.515625 -0.859375 11.859375 -0.796875 C 12.210938 -0.742188 12.445312 -0.71875 12.5625 -0.71875 C 12.6875 -0.71875 12.75 -0.671875 12.75 -0.578125 L 12.75 -0.140625 C 12.75 -0.046875 12.703125 0 12.609375 0 Z M 9.734375 -24.828125 C 9.585938 -24.828125 9.429688 -24.820312 9.265625 -24.8125 C 9.109375 -24.8125 8.90625 -24.804688 8.65625 -24.796875 C 8.40625 -24.785156 8.28125 -24.6875 8.28125 -24.5 L 8.28125 -12.84375 L 8.3125 -12.296875 C 8.34375 -12.046875 8.457031 -11.914062 8.65625 -11.90625 L 10.5 -11.796875 C 12.4375 -11.796875 14 -12.445312 15.1875 -13.75 C 16.375 -15.050781 16.96875 -16.6875 16.96875 -18.65625 C 16.96875 -20.625 16.390625 -22.148438 15.234375 -23.234375 C 14.085938 -24.316406 12.554688 -24.859375 10.640625 -24.859375 C 10.472656 -24.859375 10.316406 -24.851562 10.171875 -24.84375 C 10.023438 -24.84375 9.878906 -24.835938 9.734375 -24.828125 Z M 9.734375 -24.828125 "/></g></g></g><g fill="#292929" fill-opacity="1"><g transform="translate(171.887196, 234.155596)"><g><path d="M 4.546875 -22.578125 C 4.546875 -24.023438 3.71875 -24.75 2.0625 -24.75 C 1.789062 -24.75 1.65625 -24.796875 1.65625 -24.890625 L 1.65625 -25.328125 C 1.65625 -25.421875 1.707031 -25.46875 1.8125 -25.46875 L 10.859375 -25.46875 C 10.953125 -25.46875 11 -25.421875 11 -25.328125 L 11 -24.890625 C 11 -24.796875 10.734375 -24.75 10.203125 -24.75 C 9.671875 -24.75 9.179688 -24.578125 8.734375 -24.234375 C 8.296875 -23.898438 8.078125 -23.210938 8.078125 -22.171875 L 8.078125 -2.890625 C 8.078125 -1.441406 8.914062 -0.71875 10.59375 -0.71875 C 10.84375 -0.71875 10.96875 -0.671875 10.96875 -0.578125 L 10.96875 -0.140625 C 10.96875 -0.046875 10.921875 0 10.828125 0 L 1.765625 0 C 1.671875 0 1.625 -0.046875 1.625 -0.140625 L 1.625 -0.578125 C 1.625 -0.671875 1.890625 -0.71875 2.421875 -0.71875 C 2.953125 -0.71875 3.4375 -0.882812 3.875 -1.21875 C 4.320312 -1.5625 4.546875 -2.257812 4.546875 -3.3125 Z M 4.546875 -22.578125 "/></g></g></g><g fill="#292929" fill-opacity="1"><g transform="translate(183.885284, 234.155596)"><g><path d="M 7.203125 -0.578125 C 7.203125 -0.671875 7.257812 -0.71875 7.375 -0.71875 L 7.875 -0.71875 C 9.050781 -0.71875 10 -0.96875 10.71875 -1.46875 C 11.4375 -1.976562 11.796875 -2.570312 11.796875 -3.25 L 11.796875 -23.25 C 11.796875 -23.5 11.742188 -23.640625 11.640625 -23.671875 C 11.535156 -23.703125 11.414062 -23.726562 11.28125 -23.75 L 4.34375 -23.75 C 3.21875 -23.507812 2.476562 -22.648438 2.125 -21.171875 C 1.9375 -20.378906 1.820312 -19.867188 1.78125 -19.640625 C 1.75 -19.421875 1.6875 -19.3125 1.59375 -19.3125 L 1.265625 -19.3125 C 1.191406 -19.3125 1.15625 -19.335938 1.15625 -19.390625 L 1.15625 -19.984375 L 1.828125 -25.625 C 1.898438 -25.988281 2.019531 -26.171875 2.1875 -26.171875 C 2.351562 -26.171875 2.53125 -26.050781 2.71875 -25.8125 C 2.914062 -25.582031 3.285156 -25.46875 3.828125 -25.46875 L 23.3125 -25.46875 C 23.820312 -25.46875 24.128906 -25.523438 24.234375 -25.640625 C 24.347656 -25.765625 24.453125 -25.882812 24.546875 -26 C 24.648438 -26.113281 24.773438 -26.171875 24.921875 -26.171875 C 25.078125 -26.171875 25.175781 -26.109375 25.21875 -25.984375 C 25.257812 -25.867188 25.289062 -25.75 25.3125 -25.625 L 25.984375 -19.984375 L 25.984375 -19.390625 C 25.984375 -19.335938 25.945312 -19.3125 25.875 -19.3125 L 25.546875 -19.3125 C 25.453125 -19.3125 25.382812 -19.398438 25.34375 -19.578125 C 25.15625 -20.785156 24.878906 -21.738281 24.515625 -22.4375 C 24.148438 -23.144531 23.578125 -23.582031 22.796875 -23.75 L 15.84375 -23.75 C 15.695312 -23.726562 15.570312 -23.703125 15.46875 -23.671875 C 15.375 -23.640625 15.328125 -23.5 15.328125 -23.25 L 15.328125 -3.25 C 15.328125 -2.570312 15.679688 -1.976562 16.390625 -1.46875 C 17.109375 -0.96875 18.054688 -0.71875 19.234375 -0.71875 L 19.765625 -0.71875 C 19.859375 -0.71875 19.90625 -0.671875 19.90625 -0.578125 L 19.90625 -0.140625 C 19.90625 -0.046875 19.859375 0 19.765625 0 L 7.359375 0 C 7.253906 0 7.203125 -0.046875 7.203125 -0.140625 Z M 7.203125 -0.578125 "/></g></g></g><g fill="#292929" fill-opacity="1"><g transform="translate(210.389158, 234.155596)"><g/></g></g><g fill="#292929" fill-opacity="1"><g transform="translate(219.69563, 234.155596)"><g><path d="M 15.25 -25.25 C 15.363281 -25.25 15.421875 -25.117188 15.421875 -24.859375 L 15.90625 -21.015625 C 15.945312 -20.773438 15.96875 -20.617188 15.96875 -20.546875 C 15.96875 -20.484375 15.875 -20.453125 15.6875 -20.453125 C 15.5 -20.453125 15.378906 -20.472656 15.328125 -20.515625 C 15.285156 -20.566406 15.238281 -20.648438 15.1875 -20.765625 C 15.144531 -20.878906 15.085938 -21.007812 15.015625 -21.15625 C 14.953125 -21.300781 14.882812 -21.445312 14.8125 -21.59375 C 14.5625 -22.144531 14.164062 -22.691406 13.625 -23.234375 C 12.300781 -24.515625 10.804688 -25.15625 9.140625 -25.15625 C 8.140625 -25.15625 7.191406 -24.828125 6.296875 -24.171875 C 5.410156 -23.523438 4.96875 -22.757812 4.96875 -21.875 C 4.96875 -20.988281 5.132812 -20.21875 5.46875 -19.5625 C 5.800781 -18.914062 6.238281 -18.3125 6.78125 -17.75 C 7.320312 -17.195312 7.941406 -16.664062 8.640625 -16.15625 C 9.335938 -15.65625 10.046875 -15.148438 10.765625 -14.640625 C 12.679688 -13.296875 14.039062 -12.148438 14.84375 -11.203125 C 16.113281 -9.734375 16.800781 -8.082031 16.90625 -6.25 C 16.90625 -4.207031 16.117188 -2.570312 14.546875 -1.34375 C 12.972656 -0.125 11.144531 0.484375 9.0625 0.484375 C 7.726562 0.484375 6.664062 0.347656 5.875 0.078125 C 5.09375 -0.191406 4.550781 -0.382812 4.25 -0.5 C 3.945312 -0.625 3.722656 -0.6875 3.578125 -0.6875 C 3.441406 -0.6875 3.359375 -0.679688 3.328125 -0.671875 L 2.4375 -0.484375 C 2.28125 -0.484375 2.1875 -0.613281 2.15625 -0.875 C 1.800781 -3.851562 1.625 -5.4375 1.625 -5.625 C 1.625 -5.8125 1.640625 -5.9375 1.671875 -6 C 1.703125 -6.070312 1.785156 -6.109375 1.921875 -6.109375 C 2.253906 -6.109375 2.5625 -5.625 2.84375 -4.65625 C 4.101562 -1.945312 6.203125 -0.59375 9.140625 -0.59375 C 10.492188 -0.59375 11.644531 -1 12.59375 -1.8125 C 13.550781 -2.632812 14.03125 -3.703125 14.03125 -5.015625 C 14.03125 -7.117188 12.78125 -9.070312 10.28125 -10.875 C 9.570312 -11.382812 8.546875 -12.085938 7.203125 -12.984375 C 5.867188 -13.890625 4.804688 -14.796875 4.015625 -15.703125 C 2.773438 -17.097656 2.15625 -18.648438 2.15625 -20.359375 C 2.15625 -22.078125 2.835938 -23.484375 4.203125 -24.578125 C 5.566406 -25.679688 7.132812 -26.234375 8.90625 -26.234375 C 9.820312 -26.234375 10.832031 -26.078125 11.9375 -25.765625 C 13.039062 -25.453125 13.804688 -25.238281 14.234375 -25.125 Z M 15.25 -25.25 "/></g></g></g><g fill="#292929" fill-opacity="1"><g transform="translate(237.600803, 234.155596)"><g><path d="M 26.328125 -3.265625 C 26.328125 -1.640625 27.453125 -0.789062 29.703125 -0.71875 C 29.796875 -0.71875 29.84375 -0.671875 29.84375 -0.578125 L 29.84375 -0.140625 C 29.84375 -0.046875 29.796875 0 29.703125 0 L 18.21875 0 C 18.113281 0 18.0625 -0.046875 18.0625 -0.140625 L 18.0625 -0.578125 C 18.0625 -0.671875 18.363281 -0.71875 18.96875 -0.71875 C 19.570312 -0.71875 20.257812 -0.851562 21.03125 -1.125 C 22.207031 -1.507812 22.796875 -2.160156 22.796875 -3.078125 L 22.796875 -11.6875 C 22.796875 -11.8125 22.773438 -11.890625 22.734375 -11.921875 C 22.703125 -11.960938 22.628906 -11.984375 22.515625 -11.984375 L 8.28125 -11.984375 C 8.15625 -11.984375 8.070312 -11.960938 8.03125 -11.921875 C 8 -11.890625 7.984375 -11.8125 7.984375 -11.6875 L 7.984375 -2.890625 C 7.984375 -1.441406 9.050781 -0.71875 11.1875 -0.71875 C 11.28125 -0.71875 11.328125 -0.671875 11.328125 -0.578125 L 11.328125 -0.140625 C 11.328125 -0.046875 11.285156 0 11.203125 0 L 1.234375 0 C 1.128906 0 1.078125 -0.046875 1.078125 -0.140625 L 1.078125 -0.578125 C 1.078125 -0.671875 1.203125 -0.71875 1.453125 -0.71875 C 3.460938 -0.71875 4.46875 -1.582031 4.46875 -3.3125 L 4.46875 -22.578125 C 4.46875 -23.992188 3.628906 -24.742188 1.953125 -24.828125 C 1.703125 -24.835938 1.578125 -24.890625 1.578125 -24.984375 L 1.578125 -25.328125 C 1.578125 -25.421875 1.617188 -25.46875 1.703125 -25.46875 L 10.765625 -25.46875 C 10.859375 -25.46875 10.90625 -25.421875 10.90625 -25.328125 L 10.90625 -24.984375 C 10.90625 -24.910156 10.789062 -24.875 10.5625 -24.875 C 8.84375 -24.875 7.984375 -24.023438 7.984375 -22.328125 L 7.984375 -13.984375 C 7.984375 -13.859375 8 -13.773438 8.03125 -13.734375 C 8.070312 -13.703125 8.15625 -13.6875 8.28125 -13.6875 L 22.515625 -13.6875 C 22.628906 -13.6875 22.703125 -13.703125 22.734375 -13.734375 C 22.773438 -13.773438 22.796875 -13.859375 22.796875 -13.984375 L 22.796875 -22.625 C 22.773438 -22.726562 22.757812 -22.820312 22.75 -22.90625 C 22.75 -23 22.726562 -23.144531 22.6875 -23.34375 C 22.601562 -23.75 22.175781 -24.082031 21.40625 -24.34375 C 20.632812 -24.601562 19.765625 -24.769531 18.796875 -24.84375 C 18.691406 -24.84375 18.640625 -24.890625 18.640625 -24.984375 L 18.640625 -25.328125 C 18.640625 -25.421875 18.679688 -25.46875 18.765625 -25.46875 L 29.203125 -25.46875 C 29.296875 -25.46875 29.34375 -25.421875 29.34375 -25.328125 L 29.34375 -24.984375 C 29.34375 -24.910156 29.226562 -24.875 29 -24.875 C 27.21875 -24.875 26.328125 -24.023438 26.328125 -22.328125 Z M 26.328125 -3.265625 "/></g></g></g><g fill="#292929" fill-opacity="1"><g transform="translate(267.89821, 234.155596)"><g><path d="M 23.15625 -1.546875 C 22.113281 -0.910156 20.972656 -0.410156 19.734375 -0.046875 C 18.492188 0.304688 17.390625 0.484375 16.421875 0.484375 C 14.441406 0.484375 12.554688 0.164062 10.765625 -0.46875 C 8.304688 -1.363281 6.332031 -2.679688 4.84375 -4.421875 C 2.9375 -6.648438 1.984375 -9.476562 1.984375 -12.90625 C 1.984375 -15.375 2.613281 -17.617188 3.875 -19.640625 C 5.144531 -21.671875 6.894531 -23.273438 9.125 -24.453125 C 11.363281 -25.640625 13.769531 -26.234375 16.34375 -26.234375 C 18.914062 -26.234375 21.21875 -25.660156 23.25 -24.515625 C 25.289062 -23.367188 26.921875 -21.796875 28.140625 -19.796875 C 29.367188 -17.796875 29.984375 -15.628906 29.984375 -13.296875 C 29.984375 -10.972656 29.375 -8.757812 28.15625 -6.65625 C 26.945312 -4.550781 25.28125 -2.847656 23.15625 -1.546875 Z M 5.78125 -13.484375 C 5.78125 -11.484375 6.222656 -9.5 7.109375 -7.53125 C 7.992188 -5.5625 9.257812 -3.953125 10.90625 -2.703125 C 12.5625 -1.460938 14.472656 -0.84375 16.640625 -0.84375 C 19.722656 -0.84375 22.125 -2.023438 23.84375 -4.390625 C 25.394531 -6.523438 26.171875 -9.25 26.171875 -12.5625 C 26.171875 -15.875 25.222656 -18.726562 23.328125 -21.125 C 22.398438 -22.289062 21.265625 -23.222656 19.921875 -23.921875 C 18.578125 -24.628906 17.21875 -24.984375 15.84375 -24.984375 C 14.476562 -24.984375 13.359375 -24.832031 12.484375 -24.53125 C 11.617188 -24.226562 10.828125 -23.816406 10.109375 -23.296875 C 9.398438 -22.773438 8.773438 -22.148438 8.234375 -21.421875 C 7.691406 -20.703125 7.242188 -19.921875 6.890625 -19.078125 C 6.148438 -17.347656 5.78125 -15.484375 5.78125 -13.484375 Z M 5.78125 -13.484375 "/></g></g></g><g fill="#292929" fill-opacity="1"><g transform="translate(299.24337, 234.155596)"><g><path d="M 1.8125 0 C 1.707031 0 1.65625 -0.117188 1.65625 -0.359375 L 1.65625 -0.578125 C 1.65625 -0.671875 1.71875 -0.71875 1.84375 -0.71875 C 1.96875 -0.71875 2.144531 -0.753906 2.375 -0.828125 C 2.613281 -0.898438 2.789062 -0.945312 2.90625 -0.96875 C 4.132812 -1.25 4.75 -1.953125 4.75 -3.078125 L 4.75 -22.15625 C 4.75 -23.257812 4.539062 -23.960938 4.125 -24.265625 C 3.71875 -24.578125 2.984375 -24.734375 1.921875 -24.734375 L 1.109375 -24.734375 C 0.847656 -24.734375 0.71875 -24.878906 0.71875 -25.171875 C 0.71875 -25.335938 0.796875 -25.4375 0.953125 -25.46875 L 1.078125 -25.46875 L 11.21875 -25.75 L 13.046875 -25.75 C 15.203125 -25.601562 16.992188 -24.820312 18.421875 -23.40625 C 19.859375 -22 20.578125 -20.3125 20.578125 -18.34375 C 20.578125 -16.375 19.875 -14.585938 18.46875 -12.984375 C 17.851562 -12.273438 17.160156 -11.703125 16.390625 -11.265625 C 15.617188 -10.828125 14.859375 -10.601562 14.109375 -10.59375 L 8.6875 -10.796875 L 8.546875 -10.796875 C 8.367188 -10.796875 8.28125 -10.710938 8.28125 -10.546875 L 8.28125 -3.125 C 8.28125 -2.457031 8.457031 -1.96875 8.8125 -1.65625 C 9.175781 -1.34375 9.941406 -1.097656 11.109375 -0.921875 C 11.265625 -0.898438 11.515625 -0.859375 11.859375 -0.796875 C 12.210938 -0.742188 12.445312 -0.71875 12.5625 -0.71875 C 12.6875 -0.71875 12.75 -0.671875 12.75 -0.578125 L 12.75 -0.140625 C 12.75 -0.046875 12.703125 0 12.609375 0 Z M 9.734375 -24.828125 C 9.585938 -24.828125 9.429688 -24.820312 9.265625 -24.8125 C 9.109375 -24.8125 8.90625 -24.804688 8.65625 -24.796875 C 8.40625 -24.785156 8.28125 -24.6875 8.28125 -24.5 L 8.28125 -12.84375 L 8.3125 -12.296875 C 8.34375 -12.046875 8.457031 -11.914062 8.65625 -11.90625 L 10.5 -11.796875 C 12.4375 -11.796875 14 -12.445312 15.1875 -13.75 C 16.375 -15.050781 16.96875 -16.6875 16.96875 -18.65625 C 16.96875 -20.625 16.390625 -22.148438 15.234375 -23.234375 C 14.085938 -24.316406 12.554688 -24.859375 10.640625 -24.859375 C 10.472656 -24.859375 10.316406 -24.851562 10.171875 -24.84375 C 10.023438 -24.84375 9.878906 -24.835938 9.734375 -24.828125 Z M 9.734375 -24.828125 "/></g></g></g></svg>